<svg width="1600" height="900" viewBox="0 0 1600 900" fill="none" xmlns="http://www.w3.org/2000/svg">
  <rect width="1600" height="900" fill="#0D1B2E"/>
  <rect width="1600" height="900" fill="url(#sky)"/>
  <rect y="680" width="1600" height="220" fill="#2E2A2A"/>
  <rect y="720" width="1600" height="180" fill="#3F2F2B" opacity="0.5"/>

  <rect x="0" y="620" width="1600" height="60" fill="#5C473A" opacity="0.45"/>
  <rect x="0" y="648" width="1600" height="12" fill="#D2A25A" opacity="0.35"/>

  <rect x="930" y="110" width="36" height="430" fill="#5E392E"/>
  <rect x="1090" y="90" width="34" height="450" fill="#603A2F"/>
  <rect x="910" y="130" width="250" height="26" fill="#683C31"/>
  <rect x="970" y="150" width="18" height="210" transform="rotate(28 970 150)" fill="#744235"/>
  <rect x="1088" y="150" width="18" height="210" transform="rotate(-26 1088 150)" fill="#744235"/>

  <rect x="420" y="60" width="34" height="500" fill="#5E392E"/>
  <rect x="615" y="40" width="34" height="520" fill="#603A2F"/>
  <rect x="395" y="85" width="290" height="28" fill="#734033"/>
  <rect x="470" y="110" width="18" height="250" transform="rotate(26 470 110)" fill="#7E4738"/>
  <rect x="620" y="110" width="18" height="250" transform="rotate(-24 620 110)" fill="#7E4738"/>

  <circle cx="540" cy="98" r="18" fill="#F4C16C" opacity="0.95"/>
  <circle cx="1025" cy="85" r="16" fill="#F0BE68" opacity="0.9"/>
  <circle cx="1140" cy="146" r="10" fill="#F0BE68" opacity="0.75"/>
  <circle cx="430" cy="140" r="14" fill="#F0BE68" opacity="0.8"/>

  <g opacity="0.98">
    <rect x="700" y="420" width="178" height="122" fill="#A56B3E"/>
    <rect x="884" y="420" width="190" height="122" fill="#2F486C"/>
    <rect x="1080" y="420" width="182" height="122" fill="#5F4038"/>
    <rect x="1268" y="420" width="166" height="122" fill="#632F34"/>

    <rect x="730" y="295" width="164" height="118" fill="#A66A3D"/>
    <rect x="900" y="295" width="198" height="118" fill="#203A62"/>
    <rect x="1106" y="295" width="172" height="118" fill="#4C3234"/>

    <rect x="640" y="545" width="178" height="122" fill="#D2A94B"/>
    <rect x="824" y="545" width="198" height="122" fill="#314E78"/>
    <rect x="1028" y="545" width="164" height="122" fill="#6E4436"/>
    <rect x="1198" y="545" width="154" height="122" fill="#203D6A"/>

    <rect x="109" y="510" width="120" height="95" fill="#654436" opacity="0.86"/>
    <rect x="240" y="480" width="150" height="125" fill="#784B39" opacity="0.9"/>
    <rect x="80" y="608" width="162" height="96" fill="#A26640" opacity="0.95"/>
  </g>

  <g opacity="0.95">
    <rect x="330" y="690" width="260" height="46" rx="8" fill="#C5A56D"/>
    <rect x="570" y="700" width="30" height="24" rx="4" fill="#9D7B49"/>
    <rect x="290" y="702" width="90" height="74" rx="10" fill="#F0F2F5"/>
    <rect x="304" y="720" width="58" height="36" rx="8" fill="#4C5B69"/>
    <circle cx="320" cy="780" r="18" fill="#1C2129"/>
    <circle cx="530" cy="780" r="18" fill="#1C2129"/>
    <circle cx="355" cy="780" r="18" fill="#1C2129"/>
    <circle cx="565" cy="780" r="18" fill="#1C2129"/>
  </g>

  <defs>
    <linearGradient id="sky" x1="800" y1="0" x2="800" y2="900" gradientUnits="userSpaceOnUse">
      <stop stop-color="#6D8795"/>
      <stop offset="0.45" stop-color="#617A86"/>
      <stop offset="1" stop-color="#3B4B56"/>
    </linearGradient>
  </defs>
</svg>